<mxfile host="Electron" modified="2025-04-30T00:01:27.550Z" agent="Mozilla/5.0 (Windows NT 10.0; Win64; x64) AppleWebKit/537.36 (KHTML, like Gecko) draw.io/24.2.5 Chrome/120.0.6099.109 Electron/28.1.0 Safari/537.36" etag="C9vcDWba4ZEBV8l3JE6V" version="24.2.5" type="device">
  <diagram name="Page-1" id="M19LbXlXB21E78jAeH_m">
    <mxGraphModel dx="59" dy="559" grid="1" gridSize="10" guides="1" tooltips="1" connect="1" arrows="1" fold="1" page="1" pageScale="1" pageWidth="850" pageHeight="1100" math="0" shadow="0">
      <root>
        <mxCell id="0" />
        <mxCell id="1" parent="0" />
        <mxCell id="MtH5AI0_KP3DcqeFTTMZ-1" value="Control Vehicle" style="rounded=0;whiteSpace=wrap;html=1;horizontal=1;verticalAlign=top;" vertex="1" parent="1">
          <mxGeometry x="1190" y="180" width="250" height="160" as="geometry" />
        </mxCell>
        <mxCell id="MtH5AI0_KP3DcqeFTTMZ-2" value="Turn" style="rounded=1;whiteSpace=wrap;html=1;" vertex="1" parent="1">
          <mxGeometry x="1360" y="290" width="70" height="40" as="geometry" />
        </mxCell>
        <mxCell id="MtH5AI0_KP3DcqeFTTMZ-3" value="Accelerate" style="rounded=1;whiteSpace=wrap;html=1;" vertex="1" parent="1">
          <mxGeometry x="1280" y="290" width="70" height="40" as="geometry" />
        </mxCell>
        <mxCell id="MtH5AI0_KP3DcqeFTTMZ-4" value="Brake" style="rounded=1;whiteSpace=wrap;html=1;" vertex="1" parent="1">
          <mxGeometry x="1360" y="240" width="70" height="40" as="geometry" />
        </mxCell>
        <mxCell id="MtH5AI0_KP3DcqeFTTMZ-5" value="Perceive Environment" style="rounded=1;whiteSpace=wrap;html=1;" vertex="1" parent="1">
          <mxGeometry x="1280" y="240" width="70" height="40" as="geometry" />
        </mxCell>
        <mxCell id="MtH5AI0_KP3DcqeFTTMZ-6" value="Power On/Off" style="rounded=1;whiteSpace=wrap;html=1;" vertex="1" parent="1">
          <mxGeometry x="1197.5" y="240" width="70" height="40" as="geometry" />
        </mxCell>
        <mxCell id="MtH5AI0_KP3DcqeFTTMZ-7" value="Signal" style="rounded=1;whiteSpace=wrap;html=1;" vertex="1" parent="1">
          <mxGeometry x="1200" y="290" width="70" height="40" as="geometry" />
        </mxCell>
        <mxCell id="MtH5AI0_KP3DcqeFTTMZ-8" value="&lt;b&gt;Function: Overall Control Functionality&lt;/b&gt;" style="text;html=1;align=center;verticalAlign=middle;whiteSpace=wrap;rounded=0;" vertex="1" parent="1">
          <mxGeometry x="1190" y="150" width="250" height="30" as="geometry" />
        </mxCell>
        <mxCell id="MtH5AI0_KP3DcqeFTTMZ-9" value="" style="endArrow=none;html=1;rounded=0;" edge="1" parent="1">
          <mxGeometry width="50" height="50" relative="1" as="geometry">
            <mxPoint x="1200" y="210" as="sourcePoint" />
            <mxPoint x="1430" y="210" as="targetPoint" />
          </mxGeometry>
        </mxCell>
        <mxCell id="MtH5AI0_KP3DcqeFTTMZ-10" value="&lt;b&gt;Actions: Discrete Tasks Performed&lt;/b&gt;" style="text;html=1;align=center;verticalAlign=middle;whiteSpace=wrap;rounded=0;" vertex="1" parent="1">
          <mxGeometry x="1190" y="210" width="250" height="30" as="geometry" />
        </mxCell>
      </root>
    </mxGraphModel>
  </diagram>
</mxfile>
